<?xml version="1.0" encoding="UTF-8" standalone="no"?>
<!-- Created with Inkscape (http://www.inkscape.org/) -->

<svg
   xmlns:dc="http://purl.org/dc/elements/1.1/"
   xmlns:cc="http://creativecommons.org/ns#"
   xmlns:rdf="http://www.w3.org/1999/02/22-rdf-syntax-ns#"
   xmlns:svg="http://www.w3.org/2000/svg"
   xmlns="http://www.w3.org/2000/svg"
   xmlns:sodipodi="http://sodipodi.sourceforge.net/DTD/sodipodi-0.dtd"
   xmlns:inkscape="http://www.inkscape.org/namespaces/inkscape"
   width="26.458334mm"
   height="26.458336mm"
   viewBox="0 0 26.458334 26.458336"
   version="1.1"
   id="svg5300"
   inkscape:version="0.92.4 (unknown)"
   sodipodi:docname="sidnei.svg">
  <defs
     id="defs5294" />
  <sodipodi:namedview
     id="base"
     pagecolor="#ffffff"
     bordercolor="#666666"
     borderopacity="1.0"
     inkscape:pageopacity="0.0"
     inkscape:pageshadow="2"
     inkscape:zoom="0.35"
     inkscape:cx="80.652467"
     inkscape:cy="220.65243"
     inkscape:document-units="mm"
     inkscape:current-layer="layer1"
     showgrid="false"
     inkscape:window-width="1366"
     inkscape:window-height="718"
     inkscape:window-x="0"
     inkscape:window-y="0"
     inkscape:window-maximized="1" />
  <metadata
     id="metadata5297">
    <rdf:RDF>
      <cc:Work
         rdf:about="">
        <dc:format>image/svg+xml</dc:format>
        <dc:type
           rdf:resource="http://purl.org/dc/dcmitype/StillImage" />
        <dc:title></dc:title>
      </cc:Work>
    </rdf:RDF>
  </metadata>
  <g
     inkscape:label="Layer 1"
     inkscape:groupmode="layer"
     id="layer1"
     transform="translate(62.160727,-180.75595)">
    <g
       transform="matrix(1.5022057,0,0,1.3229167,417.80799,78.443362)"
       id="g5236"
       style="fill:#297f9f;fill-opacity:1;stroke-width:0.70936388"
       inkscape:export-filename="/home/eoko/fav.png"
       inkscape:export-xdpi="81.280106"
       inkscape:export-ydpi="81.280106">
      <g
         transform="translate(23.907358,-0.65000613)"
         id="g5218"
         style="fill:#297f9f;fill-opacity:1;stroke-width:0.70936388">
        <path
           inkscape:connector-curvature="0"
           id="path5212"
           style="font-style:normal;font-variant:normal;font-weight:normal;font-stretch:normal;font-size:10.58333302px;line-height:1.25;font-family:'Nimbus Mono L';-inkscape-font-specification:'Nimbus Mono L';letter-spacing:0px;word-spacing:0px;fill:#297f9f;fill-opacity:1;stroke:none;stroke-width:0.18768583"
           d="m -339.48497,78.613073 c -0.4445,-0.433917 -0.92075,-0.624417 -1.54516,-0.624417 -1.11125,0 -1.94734,0.709083 -1.94734,1.640417 0,0.4445 0.20109,0.85725 0.55034,1.100666 0.3175,0.232834 0.6985,0.359834 1.43933,0.486834 0.75142,0.127 0.97367,0.1905 1.22767,0.359833 0.29633,0.179916 0.47625,0.518583 0.47625,0.889 0,0.783166 -0.74084,1.354666 -1.72509,1.354666 -0.96308,0 -1.74625,-0.53975 -1.778,-1.23825 -0.0106,-0.169333 -0.0741,-0.254 -0.21166,-0.254 -0.14817,0 -0.22225,0.09525 -0.22225,0.28575 v 1.185334 c 0,0.1905 0.0741,0.28575 0.21166,0.28575 0.14817,0 0.22225,-0.09525 0.22225,-0.28575 v -0.306917 c 0.43392,0.497417 1.05834,0.762 1.78859,0.762 1.27,0 2.18016,-0.740833 2.18016,-1.767417 0,-0.53975 -0.24341,-0.994833 -0.65616,-1.248833 -0.3175,-0.201083 -0.61384,-0.28575 -1.42875,-0.423333 -0.65617,-0.105833 -0.92075,-0.1905 -1.19592,-0.370417 -0.26458,-0.179916 -0.41275,-0.47625 -0.41275,-0.804333 0,-0.6985 0.64558,-1.217083 1.51342,-1.217083 0.8255,0 1.47108,0.47625 1.51341,1.11125 0.0106,0.169333 0.0847,0.254 0.22225,0.254 0.13759,0 0.21167,-0.09525 0.21167,-0.28575 v -1.090084 c 0,-0.1905 -0.0741,-0.28575 -0.21167,-0.28575 -0.14816,0 -0.22225,0.09525 -0.22225,0.28575 z" />
        <path
           inkscape:connector-curvature="0"
           id="path5214"
           style="font-style:normal;font-variant:normal;font-weight:normal;font-stretch:normal;font-size:10.58333302px;line-height:1.25;font-family:'Nimbus Mono L';-inkscape-font-specification:'Nimbus Mono L';letter-spacing:0px;word-spacing:0px;fill:#297f9f;fill-opacity:1;stroke:none;stroke-width:0.18768583"
           d="m -334.46202,78.560156 h 1.47109 c 0.20108,0 0.29633,-0.07408 0.29633,-0.22225 0,-0.137583 -0.0953,-0.211667 -0.29633,-0.211667 h -3.37609 c -0.1905,0 -0.28575,0.07408 -0.28575,0.211667 0,0.148167 0.0952,0.22225 0.28575,0.22225 h 1.47109 v 5.090583 h -1.47109 c -0.1905,0 -0.28575,0.07408 -0.28575,0.211667 0,0.148166 0.0952,0.22225 0.28575,0.22225 h 3.37609 c 0.1905,0 0.29633,-0.07408 0.29633,-0.22225 0,-0.137584 -0.0953,-0.211667 -0.29633,-0.211667 h -1.47109 z" />
        <path
           inkscape:connector-curvature="0"
           id="path5216"
           style="font-style:normal;font-variant:normal;font-weight:normal;font-stretch:normal;font-size:10.58333302px;line-height:1.25;font-family:'Nimbus Mono L';-inkscape-font-specification:'Nimbus Mono L';letter-spacing:0px;word-spacing:0px;fill:#297f9f;fill-opacity:1;stroke:none;stroke-width:0.18768583"
           d="m -330.40215,83.650739 h -0.35983 c -0.1905,0 -0.28575,0.07408 -0.28575,0.211667 0,0.148166 0.0953,0.22225 0.28575,0.22225 h 2.32833 c 1.36525,0 2.43417,-1.185334 2.43417,-2.688167 v -0.592666 c 0,-1.49225 -1.06892,-2.677584 -2.43417,-2.677584 h -2.32833 c -0.1905,0 -0.28575,0.07408 -0.28575,0.211667 0,0.148167 0.0953,0.22225 0.28575,0.22225 h 0.35983 z m 0.43392,0 v -5.090583 h 1.51341 c 0.5715,0 0.96309,0.15875 1.3335,0.529167 0.42334,0.433916 0.68792,1.068916 0.68792,1.629833 v 0.772583 c 0,1.121833 -0.93133,2.159 -1.94733,2.159 z" />
      </g>
      <g
         transform="translate(24.452403,-1.3773038)"
         id="g5226"
         style="fill:#297f9f;fill-opacity:1;stroke-width:0.70936388">
        <path
           inkscape:connector-curvature="0"
           id="path5220"
           style="font-style:normal;font-variant:normal;font-weight:normal;font-stretch:normal;font-size:10.58333302px;line-height:1.25;font-family:'Nimbus Mono L';-inkscape-font-specification:'Nimbus Mono L';letter-spacing:0px;word-spacing:0px;fill:#297f9f;fill-opacity:1;stroke:none;stroke-width:0.18768583"
           d="m -338.8923,91.695163 v -5.5245 h 0.35983 c 0.1905,0 0.28575,-0.07408 0.28575,-0.22225 0,-0.137584 -0.0953,-0.211667 -0.28575,-0.211667 h -1.57691 c -0.20109,0 -0.29634,0.07408 -0.29634,0.211667 0,0.148166 0.0952,0.22225 0.29634,0.22225 h 0.78316 v 4.900083 l -3.22791,-5.334 h -1.12184 c -0.1905,0 -0.28575,0.07408 -0.28575,0.211667 0,0.148166 0.0953,0.22225 0.28575,0.22225 h 0.5715 v 5.090583 h -0.35983 c -0.1905,0 -0.28575,0.07408 -0.28575,0.211667 0,0.148166 0.0952,0.22225 0.28575,0.22225 h 1.5875 c 0.17992,0 0.28575,-0.07408 0.28575,-0.22225 0,-0.137584 -0.0953,-0.211667 -0.28575,-0.211667 h -0.79375 v -4.900083 l 3.22792,5.334 z" />
        <path
           inkscape:connector-curvature="0"
           id="path5222"
           style="font-style:normal;font-variant:normal;font-weight:normal;font-stretch:normal;font-size:10.58333302px;line-height:1.25;font-family:'Nimbus Mono L';-inkscape-font-specification:'Nimbus Mono L';letter-spacing:0px;word-spacing:0px;fill:#297f9f;fill-opacity:1;stroke:none;stroke-width:0.18768583"
           d="m -336.10243,88.816496 h 1.53458 v 0.47625 c 0,0.1905 0.0741,0.28575 0.22225,0.28575 0.13758,0 0.21167,-0.09525 0.21167,-0.28575 v -1.386417 c 0,-0.1905 -0.0741,-0.28575 -0.21167,-0.28575 -0.14817,0 -0.22225,0.09525 -0.22225,0.28575 v 0.47625 h -1.53458 v -2.211916 h 3.10091 v 1.037166 c 0,0.1905 0.0741,0.28575 0.21167,0.28575 0.14817,0 0.22225,-0.09525 0.22225,-0.28575 v -1.471083 h -4.54025 c -0.1905,0 -0.28575,0.07408 -0.28575,0.211667 0,0.148166 0.0952,0.22225 0.28575,0.22225 h 0.5715 v 5.090583 h -0.5715 c -0.1905,0 -0.28575,0.07408 -0.28575,0.211667 0,0.148166 0.0952,0.22225 0.28575,0.22225 h 4.7625 v -1.693334 c 0,-0.1905 -0.0741,-0.28575 -0.21167,-0.28575 -0.14816,0 -0.22225,0.09525 -0.22225,0.28575 v 1.259417 h -3.32316 z" />
        <path
           inkscape:connector-curvature="0"
           id="path5224"
           style="font-style:normal;font-variant:normal;font-weight:normal;font-stretch:normal;font-size:10.58333302px;line-height:1.25;font-family:'Nimbus Mono L';-inkscape-font-specification:'Nimbus Mono L';letter-spacing:0px;word-spacing:0px;fill:#297f9f;fill-opacity:1;stroke:none;stroke-width:0.18768583"
           d="m -328.11615,86.170663 h 1.47108 c 0.20109,0 0.29634,-0.07408 0.29634,-0.22225 0,-0.137584 -0.0953,-0.211667 -0.29634,-0.211667 h -3.37608 c -0.1905,0 -0.28575,0.07408 -0.28575,0.211667 0,0.148166 0.0952,0.22225 0.28575,0.22225 h 1.47108 v 5.090583 h -1.47108 c -0.1905,0 -0.28575,0.07408 -0.28575,0.211667 0,0.148166 0.0952,0.22225 0.28575,0.22225 h 3.37608 c 0.1905,0 0.29634,-0.07408 0.29634,-0.22225 0,-0.137584 -0.0953,-0.211667 -0.29634,-0.211667 h -1.47108 z" />
      </g>
      <g
         transform="translate(23.044823,-1.6071145)"
         id="g5234"
         style="fill:#297f9f;fill-opacity:1;stroke-width:0.70936388">
        <path
           inkscape:connector-curvature="0"
           id="path5228"
           style="font-style:normal;font-variant:normal;font-weight:normal;font-stretch:normal;font-size:10.58333302px;line-height:1.25;font-family:'Nimbus Mono L';-inkscape-font-specification:'Nimbus Mono L';letter-spacing:0px;word-spacing:0px;fill:#297f9f;fill-opacity:1;stroke:none;stroke-width:0.18768583"
           d="m -341.07247,97.548775 c -0.41275,0 -0.73025,0.29633 -0.73025,0.687917 0,0.391577 0.3175,0.698497 0.73025,0.698497 h 0.10584 c 0.41275,0 0.73025,-0.29634 0.73025,-0.698497 0,-0.391587 -0.3175,-0.687917 -0.73025,-0.687917 z" />
        <path
           inkscape:connector-curvature="0"
           id="path5230"
           style="font-style:normal;font-variant:normal;font-weight:normal;font-stretch:normal;font-size:10.58333302px;line-height:1.25;font-family:'Nimbus Mono L';-inkscape-font-specification:'Nimbus Mono L';letter-spacing:0px;word-spacing:0px;fill:#297f9f;fill-opacity:1;stroke:none;stroke-width:0.18768583"
           d="m -332.78985,93.410719 c -0.49742,-0.476247 -1.13242,-0.730247 -1.83092,-0.730247 -0.70908,0 -1.3335,0.27516 -1.80975,0.783157 -0.45508,0.486837 -0.75141,1.227664 -0.75141,1.873238 v 0.878417 c 0,1.428741 1.30175,2.730482 2.74108,2.730482 0.67733,0 1.32292,-0.264577 1.8415,-0.751414 0.27517,-0.254 0.40217,-0.433907 0.40217,-0.539747 0,-0.11641 -0.0847,-0.20108 -0.21167,-0.20108 -0.0741,0 -0.11642,0.0212 -0.1905,0.10583 -0.5715,0.677337 -1.11125,0.952494 -1.8415,0.952494 -1.24883,0 -2.30717,-1.090074 -2.30717,-2.360065 v -0.751417 c 0,-1.259401 0.9525,-2.285985 2.12725,-2.285985 0.94192,0 1.78859,0.560914 1.83092,1.206491 0.0106,0.16934 0.0847,0.254 0.21167,0.254 0.14816,0 0.22225,-0.0953 0.22225,-0.28575 v -1.185321 c 0,-0.1905 -0.0741,-0.28575 -0.21167,-0.28575 -0.14817,0 -0.22225,0.0953 -0.22225,0.28575 z" />
        <path
           inkscape:connector-curvature="0"
           id="path5232"
           style="font-style:normal;font-variant:normal;font-weight:normal;font-stretch:normal;font-size:10.58333302px;line-height:1.25;font-family:'Nimbus Mono L';-inkscape-font-specification:'Nimbus Mono L';letter-spacing:0px;word-spacing:0px;fill:#297f9f;fill-opacity:1;stroke:none;stroke-width:0.18768583"
           d="m -328.32782,92.680472 c -1.47108,0 -2.63525,1.386404 -2.63525,3.132642 0,1.746241 1.16417,3.132652 2.63525,3.132652 1.44992,0 2.63525,-1.386411 2.63525,-3.090312 0,-1.799158 -1.143,-3.174982 -2.63525,-3.174982 z m 0,0.43391 c 1.22767,0 2.20134,1.206491 2.20134,2.730482 0,1.449914 -1.00542,2.666985 -2.20134,2.666985 -1.2065,0 -2.20133,-1.217071 -2.20133,-2.698735 0,-1.481651 0.98425,-2.698732 2.20133,-2.698732 z" />
      </g>
    </g>
  </g>
</svg>
